<?xml version="1.0" encoding="utf-8"?>
<!-- Generator: Adobe Illustrator 16.0.0, SVG Export Plug-In . SVG Version: 6.00 Build 0)  -->
<!DOCTYPE svg PUBLIC "-//W3C//DTD SVG 1.1//EN" "http://www.w3.org/Graphics/SVG/1.1/DTD/svg11.dtd">
<svg version="1.1" id="Layer_4" xmlns="http://www.w3.org/2000/svg" xmlns:xlink="http://www.w3.org/1999/xlink" x="0px" y="0px"
	 width="1186px" height="575.141px" viewBox="0 0 1186 575.141" style="enable-background:new 0 0 1186 575.141;"
	 xml:space="preserve">
<style type="text/css">
<![CDATA[
	.st0{fill:#7ECCFD;}
	.st1{fill:#1B95E4;}
	.st2{fill:none;stroke:#1B95E4;stroke-width:2;stroke-miterlimit:10;}
	.st3{fill:#51BBFD;}
	.st4{fill:#529FCE;}
	.st5{fill:#224D7A;}
	.st6{fill:#FF6600;}
	.st7{fill:#FFFFFF;}
	.st8{fill:#009EFF;}
	.st9{fill:#3BB3FC;}
	.st10{fill:#DD9230;}
]]>
</style>
<g>
	<g>
		<g>
			<g>
				<path class="st7" d="M302.118,125.545l0.703-0.677c17.259-16.605,39.898-25.749,63.747-25.749
					c11.043,0,21.848,1.938,32.113,5.76l7.341,2.733L382.847,50.1l71.73-28.902l-7.21-3.366C422.029,6,394.844,0.001,366.568,0.001
					c-55.804,0-108.726,24.43-145.193,67.024l-1.119,1.307l15.697,71.7L302.118,125.545z"/>
				<path class="st7" d="M637.418,191.159l24.273-24.183l4.104-74.501l-66.11-3.636l-32.394,32.271L501.94,56.191
					c-11.617-11.651-24.699-21.778-38.885-30.102l-1.467-0.86l-70.466,28.392l23.888,59.283l0.933,0.595
					c5.786,3.697,11.158,8.014,15.973,12.845l65.153,64.721l-64.829,64.586l67.369,3.707l-4.023,73.096l71.612-71.338l40.32,40.169
					l1.325-68.292l71.972,1.401L637.418,191.159z"/>
				<path class="st7" d="M668.43,160.263l34.216-34.085c17.394-17.449,40.545-27.058,65.183-27.058
					c20.436,0,39.812,6.605,56.036,19.103l0.924,0.711l62.401,0.333l0.408-76.936l-1.32-1.044C852.174,14.277,811.213,0,767.828,0
					c-51.165,0-99.203,19.917-135.255,56.075l-26.83,26.729l66.751,3.672L668.43,160.263z"/>
				<path class="st7" d="M294.923,248.836l-0.527-0.667c-12.995-16.416-19.865-36.129-19.865-57.01
					c0-17.905,5.189-35.292,15.01-50.285l4.64-7.083l-63.078,13.813L215.096,74.5l-4.524,6.382
					c-23.002,32.444-35.16,70.577-35.16,110.278c0,52.795,22.264,103.787,61.082,139.905l1.28,1.19l70.432-13.349L294.923,248.836z"
					/>
				<path class="st7" d="M826.912,262.132l-6.839,4.736c-15.431,10.683-33.496,16.329-52.245,16.329
					c-24.443,0-47.434-9.453-64.736-26.613l-15.765-15.707l-72.247-1.406l-1.321,68.027l19.453,19.383
					c36.039,35.747,83.848,55.436,134.614,55.436c41.329,0,80.707-13.046,113.877-37.724l6.408-4.767l-72.788-13.046
					L826.912,262.132z"/>
				<path class="st7" d="M899.729,52.999l-5.804-5.545l-0.41,78.207l-61.021-0.324l4.974,5.758
					c14.44,16.719,22.394,38.052,22.394,60.068c0,23.132-8.663,45.264-24.39,62.323l-0.685,0.741l-12.085,67.421l71.49,12.811
					l1.26-1.13c40.372-36.282,63.529-88.1,63.529-142.166C958.982,138.559,937.939,89.493,899.729,52.999z"/>
				<path class="st7" d="M424.711,262.513c-16.543,13.532-36.648,20.685-58.143,20.685c-20.481,0-39.896-6.634-56.145-19.187
					l-7.207-5.566l12.421,65.526l-71.96,13.64l6.069,4.7c33.786,26.173,74.183,40.006,116.823,40.006
					c44.795,0,86.694-14.979,121.17-43.313l1.174-0.966l3.999-72.68l-67.16-3.693L424.711,262.513z"/>
			</g>
			<path class="st4" d="M238.59,135.915l61.833-13.538c17.177-16.523,40.486-26.713,66.145-26.713
				c11.555,0,22.789,2.056,33.319,5.976l-21.539-53.454l67.557-27.221c-24.523-11.45-51.458-17.506-79.336-17.506
				c-57.004,0-108.115,25.576-142.566,65.816L238.59,135.915z"/>
			<path class="st4" d="M566.534,125.232l-67.043-66.599c-11.574-11.608-24.416-21.48-38.187-29.561l-65.682,26.465l22.182,55.048
				c5.904,3.773,11.46,8.202,16.549,13.306l67.2,66.754l66.273,66.215l36.394,36.257l1.235-63.65l66.823,1.301l-39.378-39.229
				L566.534,125.232z"/>
			<polygon class="st10" points="658.313,165.461 662.151,95.738 601.033,92.377 440.177,252.626 503.251,256.095 499.535,323.64 
							"/>
			<path class="st10" d="M676.136,83.213l-3.756,68.236l27.816-27.713c18.051-18.103,42.07-28.073,67.632-28.073
				c21.868,0,42.03,7.407,58.146,19.82l57.775,0.309l0.38-71.793c-32.005-25.35-72.4-40.54-116.302-40.54
				c-50.244,0-97.447,19.595-132.815,55.066l-21.334,21.254L676.136,83.213z"/>
			<path class="st4" d="M238.848,328.533l65.316-12.379l-12.48-65.841c-12.888-16.279-20.612-36.825-20.612-59.153
				c0-19.247,5.744-37.167,15.575-52.179l-58.184,12.741l-15.07-68.842c-21.709,30.622-34.524,67.971-34.524,108.279
				C178.869,245.36,201.987,294.237,238.848,328.533z"/>
			<path class="st10" d="M811.311,329.575l10.73-59.863c-15.413,10.673-34.09,16.943-54.213,16.943
				c-25.363,0-49.245-9.834-67.176-27.619l-14.781-14.726l-67.401-1.313l-1.227,63.096l18.404,18.336
				c35.391,35.102,82.332,54.433,132.181,54.433c41.859,0,80.56-13.786,111.812-37.04L811.311,329.575z"/>
			<path class="st10" d="M897.344,55.498l-0.39,73.638l-56.867-0.303c14.459,16.742,23.233,38.522,23.233,62.327
				c0,24.927-9.611,47.645-25.307,64.667l-11.298,63.023l66.424,11.903c38.266-34.388,62.386-84.219,62.386-139.595
				C955.525,137.85,933.148,89.699,897.344,55.498z"/>
			<path class="st5" d="M489.268,268.62l-62.367-3.429c-16.997,13.901-38.095,21.464-60.333,21.464
				c-21.921,0-42.123-7.441-58.258-19.904l11.367,59.975l-67.815,12.854c31.746,24.591,71.532,39.281,114.706,39.281
				c43.857,0,85.456-14.979,118.974-42.528L489.268,268.62z"/>
		</g>
		<g>
			<path class="st7" d="M280.621,82.372c-0.476,1.185-2.099,3.542-4.746,5.895c-7.228,6.426-14.721,5.619-19.563,0.169
				c-5.6-6.3-4.132-14.565,2.328-20.309c2.59-2.302,4.982-3.565,6.293-3.867l2.16,4.38c-1.375,0.459-3.208,1.378-5,2.972
				c-3.871,3.44-4.885,8.204-1.252,12.291c3.203,3.604,7.971,4.04,12.354,0.144c1.565-1.392,2.967-3.196,3.584-4.507L280.621,82.372
				z"/>
			<path class="st7" d="M300.311,56.395c3.97,6.915,1.806,14.461-5.459,18.63c-7.132,4.094-14.421,1.798-18.088-4.59
				c-3.933-6.849-1.844-14.527,5.256-18.602C289.35,47.626,296.586,49.908,300.311,56.395z M282.25,67.067
				c2.363,4.116,6.659,5.941,10.522,3.724c3.93-2.255,4.492-6.781,2.053-11.029c-2.325-4.05-6.598-6.063-10.561-3.789
				C280.302,58.247,279.867,62.918,282.25,67.067z"/>
			<path class="st7" d="M304.217,41.691c2.239-1.021,5.13-2.117,8.196-3.027c5.22-1.549,8.811-1.625,11.99-0.549
				c3.273,1.127,5.926,3.507,7.168,7.693c1.372,4.622,0.45,8.34-1.401,11.068c-2.181,3.221-6.347,5.646-11.603,7.206
				c-3.321,0.986-5.638,1.476-7.2,1.701L304.217,41.691z M315.93,59.875c0.58-0.054,1.529-0.335,2.332-0.574
				c5.971-1.693,8.844-5.793,7.191-11.361c-1.523-5.131-5.82-6.628-11.222-5.024c-1.533,0.455-2.475,0.893-2.99,1.165L315.93,59.875
				z"/>
			<path class="st7" d="M355.998,46.244l-10.583,0.924l0.503,5.75l11.835-1.033l0.427,4.879l-17.867,1.56l-2.231-25.495l17.26-1.506
				l0.427,4.879l-11.228,0.98l0.447,5.107l10.583-0.924L355.998,46.244z"/>
		</g>
		<g>
			<path class="st7" d="M462.621,69.415c1.581,1.104,3.737,2.818,6.668,5.649c2.711,2.62,4.074,4.992,4.411,7.165
				c0.335,2.065-0.292,4.469-2.111,6.354c-1.688,1.748-3.792,2.777-5.892,2.649c-2.878-0.089-5.704-1.604-8.47-4.276
				c-0.63-0.608-1.18-1.245-1.512-1.724l-6.302,6.528l-4.328-4.181L462.621,69.415z M458.907,81.926
				c0.306,0.506,0.772,1.01,1.512,1.724c2.355,2.275,4.945,2.718,6.791,0.807c1.661-1.721,1.216-3.946-1.03-6.116
				c-0.986-0.953-1.723-1.505-2.104-1.769L458.907,81.926z"/>
			<path class="st7" d="M480.563,86.554l4.297,4.265l-14.471,14.57l8.107,8.047l-3.558,3.582l-12.403-12.313L480.563,86.554z"/>
			<path class="st7" d="M487.69,120.054l-6.274,3.399l-4.54-4.506l24.136-12.09l5.756,5.714l-11.651,24.483l-4.756-4.721
				l3.221-6.431L487.69,120.054z M495.981,122.027l2.555-5.166c0.692-1.399,1.544-2.959,2.236-4.305l-0.054-0.054
				c-1.313,0.729-2.788,1.672-4.155,2.401l-5.095,2.644L495.981,122.027z"/>
			<path class="st7" d="M498.247,140.167l18.028-18.152l5.297,5.258l-2.339,10.568c-0.79,3.334-1.902,6.724-3.176,9.844l0.081,0.08
				c2.271-2.88,4.41-5.089,6.951-7.647l5.671-5.71l4,3.97l-18.029,18.152l-4.675-4.641l2.712-11.268
				c0.843-3.334,1.846-6.992,3.093-10.3l-0.135-0.081c-2.433,2.72-4.894,5.251-7.595,7.971l-5.884,5.925L498.247,140.167z"/>
		</g>
		<g>
			<path class="st7" d="M661.195,287.79c2.273-2.45,4.867-5.224,7.756-8.133l-0.081-0.08c-3.109,1.78-6.622,3.642-9.813,5.233
				l-9.682,4.831l-3.404-3.38l5.061-9.364c1.678-2.986,3.704-6.323,5.705-9.365l-0.054-0.054c-2.729,2.532-5.753,5.414-8.269,7.731
				l-7.386,6.734l-4.081-4.051l19.137-17.053l6.08,6.036l-3.966,7.775c-1.385,2.583-3.171,5.57-4.879,8.154l0.108,0.107
				c2.707-1.592,5.87-3.426,8.445-4.667l7.938-3.779l5.919,5.875l-17.083,19.091l-4.27-4.238L661.195,287.79z"/>
			<path class="st7" d="M690.883,309.82c-4.97,6.235-12.783,7-19.333,1.78c-6.431-5.125-6.977-12.747-2.385-18.508
				c4.923-6.176,12.831-7.059,19.231-1.958C695.006,296.402,695.545,303.97,690.883,309.82z M674.314,296.954
				c-2.959,3.712-3.075,8.378,0.408,11.154c3.543,2.823,7.958,1.681,11.011-2.149c2.911-3.652,3.212-8.366-0.36-11.213
				C681.8,291.898,677.296,293.212,674.314,296.954z"/>
			<path class="st7" d="M687.03,322.51l11.848-22.677l6.615,3.454l0.895,10.787c0.232,3.419,0.174,6.985-0.12,10.344l0.101,0.053
				c1.316-3.424,2.707-6.166,4.377-9.362l3.727-7.134l4.995,2.608l-11.848,22.678l-5.839-3.049l-0.745-11.566
				c-0.182-3.435-0.307-7.226-0.095-10.755l-0.152-0.037c-1.519,3.318-3.12,6.465-4.896,9.862l-3.867,7.402L687.03,322.51z"/>
			<path class="st7" d="M727.841,313.219l-8.752,24.045l-5.689-2.069l8.752-24.045L727.841,313.219z"/>
			<path class="st7" d="M735.162,320.574l-7.518-1.803l1.15-4.799l21.035,5.045l-1.151,4.798l-7.629-1.829l-4.814,20.079
				l-5.888-1.411L735.162,320.574z"/>
			<path class="st7" d="M773.615,333.355c-0.567,7.953-6.577,13.005-14.933,12.407c-8.203-0.587-12.969-6.562-12.444-13.908
				c0.562-7.878,6.582-13.081,14.747-12.497C769.417,319.96,774.147,325.894,773.615,333.355z M752.67,332.124
				c-0.338,4.734,2.208,8.646,6.651,8.964c4.52,0.323,7.514-3.116,7.862-8.002c0.332-4.658-2.089-8.714-6.646-9.04
				S753.01,327.352,752.67,332.124z"/>
			<path class="st7" d="M774.964,320.75c1.938-0.506,4.902-1.08,8.387-1.44c4.128-0.428,6.922-0.068,8.96,1.133
				c1.636,1.014,2.77,2.729,3.016,5.108c0.352,3.398-2.072,5.863-4.051,6.717l0.016,0.151c1.854,0.533,3.052,2.127,3.998,4.243
				c1.172,2.817,2.315,6.096,2.95,7.061l-6.173,0.64c-0.494-0.712-1.33-2.496-2.503-5.695c-1.123-3.09-2.384-3.799-5-3.566
				l-2.046,0.212l1.027,9.932l-5.983,0.62L774.964,320.75z M782.076,331.044l2.728-0.282c3.105-0.322,4.82-1.874,4.59-4.102
				c-0.246-2.379-2.215-3.282-4.979-2.996c-1.705,0.177-2.602,0.384-3.045,0.544L782.076,331.044z"/>
		</g>
		<g>
			<path class="st7" d="M691.145,54.16c2.017-1.409,4.662-3.01,7.513-4.459c4.853-2.468,8.371-3.192,11.691-2.708
				c3.423,0.517,6.461,2.378,8.438,6.271c2.185,4.298,1.949,8.123,0.622,11.14c-1.563,3.563-5.222,6.702-10.108,9.187
				c-3.088,1.57-5.278,2.471-6.772,2.976L691.145,54.16z M705.946,69.929c0.561-0.157,1.443-0.606,2.189-0.986
				c5.566-2.745,7.651-7.298,5.021-12.476c-2.425-4.772-6.921-5.467-11.943-2.913c-1.425,0.725-2.272,1.326-2.729,1.687
				L705.946,69.929z"/>
			<path class="st7" d="M742.92,49.296l-10.247,2.81l1.526,5.564l11.459-3.142l1.295,4.722l-17.299,4.744l-6.768-24.672
				l16.712-4.582l1.295,4.722l-10.871,2.981l1.355,4.941l10.247-2.81L742.92,49.296z"/>
			<path class="st7" d="M749.636,33.265c1.87-0.47,4.578-0.975,8.637-1.333c3.756-0.331,6.439,0.195,8.301,1.365
				c1.779,1.101,3.183,3.149,3.412,5.758c0.213,2.42-0.391,4.683-1.864,6.185c-1.955,2.116-4.951,3.256-8.782,3.593
				c-0.872,0.077-1.714,0.075-2.293,0.012l0.796,9.037l-5.994,0.528L749.636,33.265z M756.644,44.269
				c0.583,0.101,1.269,0.079,2.293-0.011c3.263-0.288,5.295-1.953,5.062-4.6c-0.209-2.382-2.181-3.504-5.292-3.23
				c-1.365,0.121-2.266,0.314-2.714,0.43L756.644,44.269z"/>
			<path class="st7" d="M778.439,31.396l6.031,0.517l-1.75,20.464l11.38,0.975l-0.431,5.031l-17.411-1.492L778.439,31.396z"/>
			<path class="st7" d="M825.313,53.248c-2.166,7.671-9.073,11.4-17.134,9.125c-7.913-2.235-11.369-9.048-9.368-16.135
				c2.146-7.598,9.095-11.474,16.972-9.249C823.916,39.285,827.346,46.052,825.313,53.248z M805.055,47.804
				c-1.289,4.566,0.411,8.912,4.697,10.122c4.36,1.231,7.988-1.531,9.318-6.243c1.269-4.493-0.28-8.954-4.677-10.195
				S806.354,43.201,805.055,47.804z"/>
			<path class="st7" d="M830.644,70.416l4.944-9.497l-1.029-17.318l6.281,3.272l-0.292,6.827c-0.1,2.088-0.103,3.414-0.249,5.179
				l0.067,0.035c1.275-1.048,2.515-1.944,4.081-3.14l5.476-4.168l6.214,3.237l-15.074,8.671l-5.05,9.699L830.644,70.416z"/>
		</g>
		<g>
			<path class="st7" d="M505.558,232.98c1.191-1.61,3.139-3.918,5.625-6.386c2.946-2.924,5.346-4.397,7.687-4.742
				c1.91-0.238,3.87,0.384,5.555,2.081c2.407,2.424,2.067,5.864,1.063,7.77l0.107,0.108c1.778-0.749,3.712-0.262,5.777,0.791
				c2.681,1.457,5.629,3.29,6.729,3.642l-4.405,4.373c-0.832-0.244-2.602-1.107-5.524-2.86c-2.814-1.699-4.24-1.46-6.132,0.364
				l-1.459,1.449l7.035,7.083l-4.27,4.238L505.558,232.98z M517.558,236.525l1.946-1.931c2.216-2.2,2.577-4.484,0.999-6.073
				c-1.685-1.697-3.785-1.163-5.758,0.795c-1.216,1.207-1.784,1.932-2.028,2.334L517.558,236.525z"/>
			<path class="st7" d="M545.329,214.034l-7.54,7.484l4.066,4.094l8.431-8.369l3.45,3.474l-12.728,12.634l-18.029-18.152
				l12.296-12.206l3.45,3.475l-7.999,7.94l3.611,3.636l7.54-7.484L545.329,214.034z"/>
			<path class="st7" d="M539.193,199.1l4.297-4.265l14.471,14.57l8.107-8.047l3.558,3.582l-12.404,12.313L539.193,199.1z"/>
			<path class="st7" d="M577.068,182.518l-7.54,7.484l4.066,4.094l8.431-8.369l3.451,3.474l-12.729,12.634l-18.028-18.152
				l12.296-12.206l3.45,3.475l-7.999,7.94l3.611,3.636l7.539-7.484L577.068,182.518z"/>
			<path class="st7" d="M588.831,176.238l3.355,6.296l-4.54,4.506l-11.921-24.214l5.756-5.714l24.406,11.821l-4.756,4.721
				l-6.409-3.265L588.831,176.238z M590.863,167.963l-5.149-2.591c-1.395-0.702-2.949-1.565-4.29-2.266l-0.054,0.054
				c0.719,1.318,1.652,2.798,2.371,4.171l2.609,5.112L590.863,167.963z"/>
			<path class="st7" d="M604.925,161.059c1.831-0.534,4.338-1.738,6.364-3.75c1.973-1.958,2.277-3.759,1.101-4.944
				c-1.069-1.077-2.604-0.838-5.704,0.849c-4.125,2.276-8.001,3.021-10.97,0.032c-3.13-3.151-2.619-8.311,1.813-12.71
				c2.378-2.36,4.428-3.539,6.232-4.208l2.344,4.413c-1.132,0.428-3.207,1.311-5.233,3.323c-1.892,1.877-2.008,3.544-1.099,4.459
				c1.178,1.185,2.821,0.517,6.137-1.17c4.582-2.356,7.89-2.43,10.672,0.371c2.889,2.909,3.32,7.936-2.192,13.408
				c-2.243,2.227-5.155,3.887-6.933,4.367L604.925,161.059z"/>
			<path class="st7" d="M629.788,130.169l-7.54,7.484l4.066,4.094l8.431-8.369l3.451,3.474l-12.729,12.634l-18.028-18.152
				l12.296-12.206l3.45,3.475l-7.999,7.94l3.611,3.636l7.539-7.484L629.788,130.169z"/>
		</g>
		<g>
			<path class="st7" d="M344.068,319.562c1.538-0.165,4.977-0.243,8.13-0.035c3.914,0.258,6.016,0.776,7.854,1.849
				c1.88,0.999,3.247,2.84,3.079,5.378c-0.148,2.235-1.653,4.229-4.725,5.093l-0.005,0.075c2.837,0.948,5.089,3.266,4.863,6.676
				c-0.16,2.425-1.501,4.238-3.293,5.376c-2.108,1.308-5.429,1.888-10.786,1.535c-3.153-0.208-5.418-0.585-6.773-0.865
				L344.068,319.562z M348.687,340.909c0.639,0.156,1.437,0.209,2.576,0.284c2.85,0.188,5.417-0.557,5.598-3.284
				c0.17-2.576-2.239-3.648-5.431-3.858l-2.279-0.15L348.687,340.909z M349.433,329.619l2.166,0.143
				c3.496,0.23,5.245-0.834,5.367-2.69c0.13-1.971-1.484-2.952-4.295-3.137c-1.52-0.101-2.323-0.077-2.862,0.001L349.433,329.619z"
				/>
			<path class="st7" d="M371.084,319.991l1.449,14.011c0.477,4.607,2.64,7.017,6.124,6.656c3.56-0.368,5.196-3.058,4.708-7.778
				l-1.449-14.011l6.022-0.623l1.43,13.822c0.855,8.271-3.219,12.547-10.491,13.3c-6.817,0.706-11.498-2.359-12.396-11.045
				l-1.418-13.709L371.084,319.991z"/>
			<path class="st7" d="M396.416,315.862l5.903,24.898l-5.891,1.397l-5.903-24.898L396.416,315.862z"/>
			<path class="st7" d="M399.648,315.187l5.706-2.025l6.868,19.357l10.767-3.822l1.688,4.759l-16.473,5.849L399.648,315.187z"/>
			<path class="st7" d="M416.572,309.73c1.965-1.481,4.551-3.178,7.348-4.729c4.761-2.643,8.252-3.494,11.589-3.132
				c3.441,0.392,6.547,2.141,8.667,5.957c2.341,4.215,2.247,8.045,1.03,11.108c-1.432,3.617-4.975,6.886-9.769,9.546
				c-3.03,1.682-5.186,2.662-6.662,3.22L416.572,309.73z M431.948,324.946c0.555-0.178,1.42-0.658,2.153-1.064
				c5.464-2.946,7.382-7.57,4.562-12.648c-2.599-4.68-7.119-5.21-12.046-2.476c-1.398,0.776-2.224,1.408-2.667,1.784
				L431.948,324.946z"/>
		</g>
		<g>
			<path class="st7" d="M225.476,197.706l-0.706-7.697l4.916-0.451l1.976,21.538l-4.916,0.45l-0.717-7.811l-20.569,1.884
				l-0.553-6.029L225.476,197.706z"/>
			<path class="st7" d="M222.418,234.398l-2.776-10.256l-5.571,1.508l3.104,11.469l-4.728,1.279l-4.686-17.313l24.703-6.685
				l4.527,16.725l-4.728,1.279l-2.945-10.88l-4.948,1.339l2.776,10.255L222.418,234.398z"/>
			<path class="st7" d="M221.4,244.355c-0.118,1.903,0.166,4.67,1.372,7.259c1.174,2.52,2.765,3.417,4.279,2.711
				c1.376-0.642,1.671-2.165,1.135-5.654c-0.744-4.652-0.131-8.551,3.688-10.331c4.025-1.876,8.708,0.353,11.345,6.014
				c1.416,3.037,1.83,5.364,1.847,7.289l-4.947,0.709c-0.019-1.209-0.146-3.461-1.353-6.049c-1.126-2.416-2.655-3.091-3.825-2.545
				c-1.514,0.705-1.441,2.479-0.978,6.169c0.664,5.11-0.388,8.247-3.966,9.915c-3.716,1.731-8.593,0.434-11.874-6.607
				c-1.334-2.864-1.91-6.167-1.76-8.002L221.4,244.355z"/>
			<path class="st7" d="M247.9,263.567l-4.42-6.341l4.048-2.822l12.368,17.741l-4.048,2.822l-4.486-6.434l-16.942,11.812
				l-3.462-4.966L247.9,263.567z"/>
		</g>
		<g>
			<path class="st7" d="M915.961,164.338c-7.703,2.057-14.44-1.977-16.602-10.07c-2.123-7.946,1.97-14.399,9.086-16.3
				c7.63-2.038,14.514,1.958,16.626,9.867C927.253,156.002,923.188,162.409,915.961,164.338z M910.289,144.136
				c-4.585,1.225-7.452,4.907-6.303,9.211c1.169,4.378,5.398,6.086,10.13,4.822c4.513-1.205,7.556-4.816,6.377-9.23
				C919.314,144.524,914.911,142.902,910.289,144.136z"/>
			<path class="st7" d="M928.739,169.858c0.413,1.883,0.836,4.604,1.071,8.671c0.218,3.763-0.389,6.43-1.614,8.255
				c-1.154,1.745-3.244,3.087-5.859,3.238c-2.426,0.141-4.671-0.53-6.128-2.047c-2.056-2.017-3.105-5.045-3.327-8.884
				c-0.051-0.874-0.023-1.715,0.058-2.292l-9.059,0.525l-0.348-6.006L928.739,169.858z M917.525,176.534
				c-0.118,0.579-0.117,1.265-0.058,2.292c0.189,3.269,1.793,5.35,4.446,5.196c2.388-0.139,3.568-2.076,3.389-5.192
				c-0.079-1.369-0.246-2.274-0.348-2.726L917.525,176.534z"/>
			<path class="st7" d="M913.113,212.457l1.2-10.554l-5.733-0.651l-1.343,11.802l-4.865-0.553l2.026-17.816l25.423,2.89
				l-1.958,17.211l-4.865-0.553l1.273-11.196l-5.092-0.579l-1.201,10.554L913.113,212.457z"/>
			<path class="st7" d="M925.804,223.429c-0.272,1.984-0.873,4.943-1.87,8.301c-1.181,3.979-2.579,6.423-4.468,7.848
				c-1.562,1.125-3.579,1.519-5.872,0.838c-3.274-0.972-4.627-4.153-4.661-6.308l-0.146-0.043c-1.2,1.51-3.131,2.01-5.447,2.077
				c-3.052,0.007-6.518-0.188-7.652,0.032l1.767-5.949c0.847-0.186,2.814-0.276,6.219-0.14c3.284,0.141,4.421-0.753,5.205-3.26
				l0.585-1.971l-9.571-2.841l1.712-5.767L925.804,223.429z M913.575,226.074l-0.78,2.628c-0.889,2.993-0.109,5.17,2.038,5.808
				c2.293,0.681,3.879-0.794,4.67-3.459c0.487-1.642,0.638-2.551,0.659-3.021L913.575,226.074z"/>
			<path class="st7" d="M897.368,248.282l-5.082-5.012l2.989-5.655l18.604,19.568l-3.79,7.169l-26.824-4.017l3.131-5.924
				l7.093,1.208L897.368,248.282z M897.897,256.788l5.688,0.939c1.541,0.254,3.282,0.615,4.771,0.886l0.036-0.067
				c-1.08-1.045-2.413-2.18-3.509-3.275l-4.016-4.104L897.897,256.788z"/>
			<path class="st7" d="M896.106,277.025l4.665-6.161l3.934,2.979l-13.053,17.239l-3.934-2.979l4.734-6.252l-16.461-12.468
				l3.654-4.826L896.106,277.025z"/>
			<path class="st7" d="M864.313,296.886l7.735-7.284l-3.956-4.2l-8.65,8.146l-3.358-3.564l13.059-12.297l17.545,18.625
				l-12.614,11.879l-3.358-3.564l8.207-7.729l-3.515-3.73l-7.735,7.284L864.313,296.886z"/>
		</g>
	</g>
</g>
</svg>
